<?xml version="1.0" encoding="UTF-8"?>
<svg width="32px" height="32px" viewBox="0 0 32 32" version="1.1" xmlns="http://www.w3.org/2000/svg" xmlns:xlink="http://www.w3.org/1999/xlink">
    <title>At</title>
    <g id="post" stroke="none" stroke-width="1" fill="none" fill-rule="evenodd">
        <g transform="translate(-316.000000, -2874.000000)" id="Group-32">
            <g transform="translate(124.000000, 2813.000000)">
                <g id="At" transform="translate(192.000000, 61.000000)">
                    <path d="M29,16 C29,16.06375 29,16.125 29,16.19 C28.9575,17.9725 28.29625,20 25.5,20 C22.6075,20 22,17.825 22,16 L22,11 C22.0006088,10.7228956 21.8862073,10.457962 21.6840858,10.268399 C21.4819642,10.0788361 21.2102462,9.98164112 20.93375,10 C20.3993173,10.0458905 19.9914679,10.4974185 20,11.03375 L20,11.53375 C18.1520627,9.87754147 15.4752359,9.52980769 13.2654735,10.6588999 C11.0557111,11.787992 9.76901917,14.1609111 10.0283343,16.6288362 C10.2876495,19.0967614 12.0394596,21.1504123 14.4356464,21.7955383 C16.8318333,22.4406642 19.3779205,21.5441371 20.84125,19.54 C20.9662196,19.7586282 21.1074511,19.9675504 21.26375,20.165 C21.935,21 23.21375,22 25.5,22 C25.8861221,22.0012823 26.2716615,21.9699206 26.6525,21.90625 C26.8447488,21.8741919 27.0381043,21.9567685 27.1478839,22.1178143 C27.2576635,22.2788602 27.2638563,22.4890194 27.16375,22.65625 C24.7712805,26.66943 20.4100714,29.0909985 15.73875,29 C8.89125,28.8625 3.275,23.3575 3.01,16.51375 C2.82550522,11.8126098 5.19543734,7.37864002 9.20672849,4.92012399 C13.2180196,2.46160795 18.2446281,2.36224588 22.3499438,4.66031918 C26.4552595,6.95839248 28.9985663,11.2952412 29,16 Z M12,16 C12,18.209139 13.790861,20 16,20 C18.209139,20 20,18.209139 20,16 C20,13.790861 18.209139,12 16,12 C13.790861,12 12,13.790861 12,16 Z" id="Shape" fill="#211F3B" fill-rule="nonzero"></path>
                    <rect id="Rectangle" x="0" y="0" width="32" height="32"></rect>
                </g>
            </g>
        </g>
    </g>
</svg>