<?xml version="1.0" encoding="UTF-8"?>
<svg width="32px" height="32px" viewBox="0 0 32 32" version="1.1" xmlns="http://www.w3.org/2000/svg" xmlns:xlink="http://www.w3.org/1999/xlink">
    <title>X</title>
    <g id="post" stroke="none" stroke-width="1" fill="none" fill-rule="evenodd">
        <g id="lightbox" transform="translate(-1284.000000, -24.000000)">
            <g id="X" transform="translate(1284.000000, 24.000000)">
                <path d="M25.53,24.47 C25.7306532,24.6569706 25.8132492,24.9385555 25.7453855,25.2042889 C25.6775219,25.4700223 25.4700223,25.6775219 25.2042889,25.7453855 C24.9385555,25.8132492 24.6569706,25.7306532 24.47,25.53 L16,17.06125 L7.53,25.53 C7.23449025,25.8053589 6.77399028,25.7972339 6.4883782,25.5116218 C6.20276612,25.2260097 6.19464114,24.7655098 6.47,24.47 L14.93875,16 L6.47,7.53 C6.19464114,7.23449025 6.20276612,6.77399028 6.4883782,6.4883782 C6.77399028,6.20276612 7.23449025,6.19464114 7.53,6.47 L16,14.93875 L24.47,6.47 C24.7655098,6.19464114 25.2260097,6.20276612 25.5116218,6.4883782 C25.7972339,6.77399028 25.8053589,7.23449025 25.53,7.53 L17.06125,16 L25.53,24.47 Z" id="Path" fill="#211F3B" fill-rule="nonzero"></path>
                <rect id="Rectangle" x="0" y="0" width="32" height="32"></rect>
            </g>
        </g>
    </g>
</svg>