<?xml version="1.0" encoding="UTF-8"?>
<svg width="32px" height="32px" viewBox="0 0 32 32" version="1.1" xmlns="http://www.w3.org/2000/svg" xmlns:xlink="http://www.w3.org/1999/xlink">
    <title>FacebookLogo</title>
    <g id="post" stroke="none" stroke-width="1" fill="none" fill-rule="evenodd">
        <g transform="translate(-252.000000, -2874.000000)" id="Group-32">
            <g transform="translate(124.000000, 2813.000000)">
                <g id="FacebookLogo" transform="translate(128.000000, 61.000000)">
                    <path d="M29,16 C28.9915489,22.5747631 24.08266,28.1115393 17.55625,28.9075 C17.4141997,28.9235857 17.2720578,28.878098 17.1657385,28.78253 C17.0594191,28.6869621 16.9990921,28.5504553 17,28.4075 L17,19 L20,19 C20.2771044,19.0006088 20.542038,18.8862073 20.731601,18.6840858 C20.9211639,18.4819642 21.0183589,18.2102462 21,17.93375 C20.9541738,17.4002908 20.5041254,16.9927925 19.96875,17 L17,17 L17,14 C17,12.8954305 17.8954305,12 19,12 L21,12 C21.2771044,12.0006088 21.542038,11.8862073 21.731601,11.6840858 C21.9211639,11.4819642 22.0183589,11.2102462 22,10.93375 C21.9541095,10.3993173 21.5025815,9.99146789 20.96625,10 L19,10 C16.790861,10 15,11.790861 15,14 L15,17 L12,17 C11.7228956,16.9993912 11.457962,17.1137927 11.268399,17.3159142 C11.0788361,17.5180358 10.9816411,17.7897538 11,18.06625 C11.0458905,18.6006827 11.4974185,19.0085321 12.03375,19 L15,19 L15,28.41 C15.0008663,28.5527117 14.9407077,28.6889922 14.8346764,28.7845158 C14.7286452,28.8800395 14.586848,28.9257012 14.445,28.91 C7.73126011,28.0923913 2.76173552,22.2700791 3.00875,15.51125 C3.25875,8.76125 8.72625,3.27375 15.48125,3.01125 C19.0149175,2.87437279 22.4521538,4.18130277 25.0021952,6.63137023 C27.5522365,9.0814377 28.9955176,12.4636853 29,16 Z" id="Path" fill="#211F3B" fill-rule="nonzero"></path>
                    <rect id="Rectangle" x="0" y="0" width="32" height="32"></rect>
                </g>
            </g>
        </g>
    </g>
</svg>