<?xml version="1.0" encoding="UTF-8"?>
<svg width="24px" height="24px" viewBox="0 0 24 24" version="1.1" xmlns="http://www.w3.org/2000/svg" xmlns:xlink="http://www.w3.org/1999/xlink">
    <title>ImagesSquare</title>
    <g id="post" stroke="none" stroke-width="1" fill="none" fill-rule="evenodd">
        <g transform="translate(-1292.000000, -3393.000000)" id="Group-31">
            <g transform="translate(0.000000, 2994.000000)">
                <g id="Group-10" transform="translate(1183.000000, 380.000000)">
                    <g id="ImagesSquare" transform="translate(109.000000, 19.000000)">
                        <path d="M19.5,3 L7.5,3 C6.67157288,3 6,3.67157288 6,4.5 L6,6 L4.5,6 C3.67157288,6 3,6.67157288 3,7.5 L3,19.5 C3,20.3284271 3.67157288,21 4.5,21 L16.5,21 C17.3284271,21 18,20.3284271 18,19.5 L18,18 L19.5,18 C20.3284271,18 21,17.3284271 21,16.5 L21,4.5 C21,3.67157288 20.3284271,3 19.5,3 Z M7.5,4.5 L19.5,4.5 L19.5,11.004375 L17.934375,9.43875 C17.3486682,8.85342697 16.3994568,8.85342697 15.81375,9.43875 L8.7534375,16.5 L7.5,16.5 L7.5,4.5 Z M16.5,19.5 L4.5,19.5 L4.5,7.5 L6,7.5 L6,16.5 C6,17.3284271 6.67157288,18 7.5,18 L16.5,18 L16.5,19.5 Z M9.75,8.25 C9.75,7.42157288 10.4215729,6.75 11.25,6.75 C12.0784271,6.75 12.75,7.42157288 12.75,8.25 C12.75,9.07842712 12.0784271,9.75 11.25,9.75 C10.4215729,9.75 9.75,9.07842712 9.75,8.25 Z" id="Shape" fill="#211F3B" fill-rule="nonzero"></path>
                        <rect id="Rectangle" x="0" y="0" width="24" height="24"></rect>
                    </g>
                </g>
            </g>
        </g>
    </g>
</svg>