<?xml version="1.0" encoding="UTF-8"?>
<svg width="32px" height="32px" viewBox="0 0 32 32" version="1.1" xmlns="http://www.w3.org/2000/svg" xmlns:xlink="http://www.w3.org/1999/xlink">
    <title>List</title>
    <g id="home" stroke="none" stroke-width="1" fill="none" fill-rule="evenodd">
        <g id="navigation" transform="translate(-1284.000000, -24.000000)">
            <g id="Group" transform="translate(964.000000, 0.000000)">
                <g id="List" transform="translate(320.000000, 24.000000)">
                    <path d="M27.75,16 C27.75,16.4142136 27.4142136,16.75 27,16.75 L5,16.75 C4.58578644,16.75 4.25,16.4142136 4.25,16 C4.25,15.5857864 4.58578644,15.25 5,15.25 L27,15.25 C27.4142136,15.25 27.75,15.5857864 27.75,16 Z M5,8.75 L27,8.75 C27.4142136,8.75 27.75,8.41421356 27.75,8 C27.75,7.58578644 27.4142136,7.25 27,7.25 L5,7.25 C4.58578644,7.25 4.25,7.58578644 4.25,8 C4.25,8.41421356 4.58578644,8.75 5,8.75 Z M27,23.25 L5,23.25 C4.58578644,23.25 4.25,23.5857864 4.25,24 C4.25,24.4142136 4.58578644,24.75 5,24.75 L27,24.75 C27.4142136,24.75 27.75,24.4142136 27.75,24 C27.75,23.5857864 27.4142136,23.25 27,23.25 Z" id="Shape" fill="#211F3B" fill-rule="nonzero"></path>
                    <rect id="Rectangle" x="0" y="0" width="32" height="32"></rect>
                </g>
            </g>
        </g>
    </g>
</svg>