<?xml version="1.0" encoding="UTF-8"?>
<svg width="24px" height="24px" viewBox="0 0 24 24" version="1.1" xmlns="http://www.w3.org/2000/svg" xmlns:xlink="http://www.w3.org/1999/xlink">
    <title>ArrowSquareOut</title>
    <g id="post" stroke="none" stroke-width="1" fill="none" fill-rule="evenodd">
        <g transform="translate(-1103.000000, -2573.000000)" id="specs">
            <g transform="translate(964.000000, 1837.000000)">
                <g id="Group-10" transform="translate(0.000000, 717.000000)">
                    <g id="ArrowSquareOut" transform="translate(139.000000, 19.000000)">
                        <path d="M18,12.75 L18,19.5 C18,20.3284271 17.3284271,21 16.5,21 L4.5,21 C3.67157288,21 3,20.3284271 3,19.5 L3,7.5 C3,6.67157288 3.67157288,6 4.5,6 L11.25,6 C11.6642136,6 12,6.33578644 12,6.75 C12,7.16421356 11.6642136,7.5 11.25,7.5 L4.5,7.5 L4.5,19.5 L16.5,19.5 L16.5,12.75 C16.5,12.3357864 16.8357864,12 17.25,12 C17.6642136,12 18,12.3357864 18,12.75 Z M21.0000002,3.75 C21.0000002,3.33578644 20.6642136,2.99999977 20.25,2.99999977 L14.25,2.99999977 C13.94647,2.99976113 13.6727214,3.18249554 13.5565332,3.46290741 C13.4403449,3.74331929 13.5046274,4.06611632 13.719375,4.280625 L16.1896875,6.75 L12.219375,10.719375 C11.9263189,11.0124311 11.9263189,11.4875689 12.219375,11.780625 C12.5124311,12.0736811 12.9875689,12.0736811 13.280625,11.780625 L17.25,7.8103125 L19.719375,10.280625 C19.9338837,10.4953726 20.2566807,10.5596551 20.5370926,10.4434668 C20.8175045,10.3272786 21.0002389,10.05353 21.0000002,9.75 L21.0000002,3.75 Z" id="Shape" fill="#211F3B" fill-rule="nonzero"></path>
                        <rect id="Rectangle" x="0" y="0" width="24" height="24"></rect>
                    </g>
                </g>
            </g>
        </g>
    </g>
</svg>