<?xml version="1.0" encoding="UTF-8"?>
<svg width="48px" height="48px" viewBox="0 0 48 48" version="1.1" xmlns="http://www.w3.org/2000/svg" xmlns:xlink="http://www.w3.org/1999/xlink">
    <title>RssSimple</title>
    <g id="home" stroke="none" stroke-width="1" fill="none" fill-rule="evenodd">
        <g transform="translate(-124.000000, -2572.000000)" id="Group-30">
            <g transform="translate(0.000000, 2478.000000)">
                <g id="RssSimple" transform="translate(124.000000, 94.000000)">
                    <path d="M40.125,37.5 C40.125,38.1213203 39.6213203,38.625 39,38.625 C38.3786797,38.625 37.875,38.1213203 37.875,37.5 C37.875,22.40625 25.59375,10.125 10.5,10.125 C9.87867966,10.125 9.375,9.62132034 9.375,9 C9.375,8.37867966 9.87867966,7.875 10.5,7.875 C26.835,7.875 40.125,21.165 40.125,37.5 Z M10.5,21.375 C9.87867966,21.375 9.375,21.8786797 9.375,22.5 C9.375,23.1213203 9.87867966,23.625 10.5,23.625 C18.1590962,23.6342982 24.3657018,29.8409038 24.375,37.5 C24.375,38.1213203 24.8786797,38.625 25.5,38.625 C26.1213203,38.625 26.625,38.1213203 26.625,37.5 C26.6146677,28.5986917 19.4013083,21.3853323 10.5,21.375 Z M11.25,34.875 C10.2144661,34.875 9.375,35.7144661 9.375,36.75 C9.375,37.7855339 10.2144661,38.625 11.25,38.625 C12.2855339,38.625 13.125,37.7855339 13.125,36.75 C13.125,35.7144661 12.2855339,34.875 11.25,34.875 Z" id="Shape" fill="#211F3B" fill-rule="nonzero"></path>
                    <rect id="Rectangle" x="0" y="0" width="48" height="48"></rect>
                </g>
            </g>
        </g>
    </g>
</svg>