<?xml version="1.0" encoding="UTF-8"?>
<svg width="32px" height="32px" viewBox="0 0 32 32" version="1.1" xmlns="http://www.w3.org/2000/svg" xmlns:xlink="http://www.w3.org/1999/xlink">
    <g id="home" stroke="none" stroke-width="1" fill="none" fill-rule="evenodd">
        <g transform="translate(-1212.000000, -24.000000)" id="nav">
            <g id="MagnifyingGlass" transform="translate(1212.000000, 24.000000)">
                <path d="M28.53,27.47 L22.1075,21.0475 C25.9142789,16.6696657 25.568806,10.0630291 21.3261881,6.10611214 C17.0835702,2.14919519 10.4689102,2.26439938 6.36665479,6.36665479 C2.26439938,10.4689102 2.14919519,17.0835702 6.10611214,21.3261881 C10.0630291,25.568806 16.6696657,25.9142789 21.0475,22.1075 L27.47,28.53 C27.7655098,28.8053589 28.2260097,28.7972339 28.5116218,28.5116218 C28.7972339,28.2260097 28.8053589,27.7655098 28.53,27.47 Z M4.75,14 C4.75,8.89136606 8.89136606,4.75 14,4.75 C19.1086339,4.75 23.25,8.89136606 23.25,14 C23.25,19.1086339 19.1086339,23.25 14,23.25 C8.89393589,23.2438012 4.75619878,19.1060641 4.75,14 Z" id="Shape" fill="#211F3B" fill-rule="nonzero"></path>
                <rect id="Rectangle" x="0" y="0" width="32" height="32"></rect>
            </g>
        </g>
    </g>
</svg>
