<?xml version="1.0" encoding="UTF-8"?>
<svg width="32px" height="32px" viewBox="0 0 32 32" version="1.1" xmlns="http://www.w3.org/2000/svg" xmlns:xlink="http://www.w3.org/1999/xlink">
    <title>Export</title>
    <g id="post" stroke="none" stroke-width="1" fill="none" fill-rule="evenodd">
        <g transform="translate(-124.000000, -2874.000000)" id="Group-32">
            <g transform="translate(124.000000, 2813.000000)">
                <g id="Export" transform="translate(0.000000, 61.000000)">
                    <path d="M17,12 L15,12 L15,5.41375 L11.7075,8.7075 C11.3167585,9.09824146 10.6832415,9.09824146 10.2925,8.7075 C9.90175854,8.31675854 9.90175854,7.68324146 10.2925,7.2925 L15.2925,2.2925 C15.4800683,2.10472296 15.7345908,1.99921334 16,1.99921334 C16.2654092,1.99921334 16.5199317,2.10472296 16.7075,2.2925 L21.7075,7.2925 C21.9602654,7.5452654 22.0589815,7.91367901 21.966463,8.25896297 C21.8739444,8.60424694 21.6042469,8.87394441 21.258963,8.96646297 C20.913679,9.05898153 20.5452654,8.9602654 20.2925,8.7075 L17,5.41375 L17,12 Z M25,12 L17,12 L17,17 C17,17.5522847 16.5522847,18 16,18 C15.4477153,18 15,17.5522847 15,17 L15,12 L7,12 C5.8954305,12 5,12.8954305 5,14 L5,26 C5,27.1045695 5.8954305,28 7,28 L25,28 C26.1045695,28 27,27.1045695 27,26 L27,14 C27,12.8954305 26.1045695,12 25,12 Z" id="Shape" fill="#211F3B" fill-rule="nonzero"></path>
                    <rect id="Rectangle" x="0" y="0" width="32" height="32"></rect>
                </g>
            </g>
        </g>
    </g>
</svg>