<?xml version="1.0" encoding="UTF-8"?>
<svg width="32px" height="32px" viewBox="0 0 32 32" version="1.1" xmlns="http://www.w3.org/2000/svg" xmlns:xlink="http://www.w3.org/1999/xlink">
    <title>TwitterLogo</title>
    <g id="post" stroke="none" stroke-width="1" fill="none" fill-rule="evenodd">
        <g transform="translate(-188.000000, -2874.000000)" id="Group-32">
            <g transform="translate(124.000000, 2813.000000)">
                <g id="TwitterLogo" transform="translate(64.000000, 61.000000)">
                    <path d="M30.7075,9.7075 L26.97,13.445 C26.215,22.1975 18.83375,29 10,29 C8.185,29 6.68875,28.7125 5.5525,28.145 C4.63625,27.68625 4.26125,27.195 4.1675,27.055 C3.99814826,26.8010251 3.95407514,26.4836074 4.04782619,26.1931009 C4.14157724,25.9025944 4.3628837,25.6708189 4.64875,25.56375 C4.68125,25.55125 7.67875,24.4 9.5825,22.20875 C8.52672896,21.3407217 7.60509731,20.3213668 6.8475,19.18375 C5.2975,16.8825 3.5625,12.885 4.0975,6.91125 C4.13212298,6.52369683 4.38840279,6.19141446 4.75444763,6.05947742 C5.12049247,5.92754037 5.52983258,6.019907 5.80375,6.29625 C5.8475,6.34 9.96375,10.43375 14.99625,11.76125 L14.99625,11 C14.9923817,9.38734171 15.6396068,7.8413931 16.79125,6.7125 C17.9097157,5.59561178 19.4320183,4.97803564 21.0125,5 C23.1471427,5.0210549 25.1145032,6.15962864 26.19625,8 L30,8 C30.4047067,7.99968151 30.7697048,8.24332739 30.9246224,8.61720989 C31.0795401,8.99109239 30.9938302,9.42148842 30.7075,9.7075 Z" id="Path" fill="#211F3B" fill-rule="nonzero"></path>
                    <rect id="Rectangle" x="0" y="0" width="32" height="32"></rect>
                </g>
            </g>
        </g>
    </g>
</svg>