<?xml version="1.0" encoding="UTF-8"?>
<svg width="16px" height="16px" viewBox="0 0 16 16" version="1.1" xmlns="http://www.w3.org/2000/svg" xmlns:xlink="http://www.w3.org/1999/xlink">
    <title>logo-16</title>
    <g id="logo-16" stroke="none" stroke-width="1" fill="none" fill-rule="evenodd">
        <rect fill="#DE6E4B" x="0" y="0" width="16" height="16"></rect>
        <path d="M3.52437375,11.1984735 C4.64119967,10.9034433 5.80617557,11.4983563 6.12642025,12.5272489 C6.44666493,13.5561416 5.80090824,14.6293931 4.68408232,14.9244233 C3.5672564,15.2194535 2.4022805,14.6245405 2.08203582,13.5956478 C1.76179114,12.5667552 2.40754782,11.4935037 3.52437375,11.1984735 Z M8.28262935,1.8768759 L10.5453609,9.14665415 C11.1885651,11.2131617 10.0347498,13.409817 7.96824227,14.0530212 C7.91401143,14.0699007 7.85942004,14.0855991 7.80450678,14.1001055 L7.71737065,14.1231241 L5.45463907,6.85334585 C4.81143489,4.78683833 5.96525021,2.59018297 8.03175773,1.94697878 C8.08598857,1.93009934 8.14057996,1.91440087 8.19549322,1.89989452 L8.28262935,1.8768759 Z M11.3159177,1.07557673 C12.4327436,0.780546515 13.5977195,1.37545954 13.9179642,2.40435216 C14.2382089,3.43324477 13.5924522,4.50649628 12.4756263,4.80152649 C11.3588003,5.0965567 10.1938244,4.50164368 9.87357975,3.47275106 C9.55333507,2.44385844 10.1990918,1.37060694 11.3159177,1.07557673 Z" id="Combined-Shape" fill="#211F3B"></path>
        <rect id="Rectangle-Copy-2" x="0" y="0" width="16" height="16"></rect>
    </g>
</svg>