<?xml version="1.0" encoding="UTF-8"?>
<svg width="514px" height="654px" viewBox="0 0 514 654" version="1.1" xmlns="http://www.w3.org/2000/svg" xmlns:xlink="http://www.w3.org/1999/xlink">
    <title>Combined Shape</title>
    <g id="home" stroke="none" stroke-width="1" fill="none" fill-rule="evenodd">
        <g transform="translate(-789.000000, -2378.000000)" id="Group-30" stroke="#AFB5C0">
            <g transform="translate(0.000000, 2478.000000)">
                <path d="M854.901291,375.476557 C878.860306,368.568415 903.335773,372.079516 923.539066,383.340866 C943.741289,394.601621 959.671856,413.611952 966.541863,437.703295 C973.411208,461.794016 969.919728,486.404 958.721727,506.718252 C947.523172,527.033507 928.61748,543.052538 904.659356,549.960678 C880.70046,556.869158 856.225064,553.358242 836.021839,542.096993 C815.819644,530.836319 799.889119,511.825954 793.019239,487.734553 C786.149776,463.643923 789.641158,439.034014 800.839042,418.719712 C812.037528,398.404318 830.943201,382.38506 854.901291,375.476557 Z M1058.3109,-58.7548902 L1157.76024,289.653592 C1171.40202,337.493519 1164.40437,386.342937 1142.04638,426.678032 C1119.61332,467.148581 1081.71658,499.047526 1033.68864,512.754781 L934.239683,164.346297 C920.59789,116.506428 927.595489,67.6570533 949.9534,27.3219655 C972.386394,-13.1485766 1010.28304,-45.0475501 1058.3109,-58.7548902 Z M1187.34045,-95.9608603 C1211.2994,-102.869162 1235.77482,-99.3581548 1255.97809,-88.0968695 C1276.18034,-76.8361614 1292.11093,-57.8258205 1298.98096,-33.7344618 C1305.85029,-9.64375229 1302.35881,14.9662162 1291.16083,35.2805023 C1279.96229,55.5958187 1261.05661,71.6149489 1237.09851,78.5232608 C1213.13955,85.4315808 1188.66411,81.9205704 1168.46087,70.6592571 C1148.25869,59.3985367 1132.32819,40.3881809 1125.45834,16.2967971 C1118.58885,-7.79384515 1122.08024,-32.4037695 1133.27815,-52.7180381 C1144.47664,-73.0333704 1163.38233,-89.0525288 1187.34045,-95.9608603 Z" id="Combined-Shape"></path>
            </g>
        </g>
    </g>
</svg>