<?xml version="1.0" encoding="UTF-8"?>
<svg width="178px" height="32px" viewBox="0 0 178 32" version="1.1" xmlns="http://www.w3.org/2000/svg" xmlns:xlink="http://www.w3.org/1999/xlink">
    <title>Group 3</title>
    <g id="home" stroke="none" stroke-width="1" fill="none" fill-rule="evenodd">
        <g id="navigation" transform="translate(-124.000000, -24.000000)">
            <g id="Group-3" transform="translate(124.000000, 24.000000)">
                <path d="M49.3014625,12.1692919 L53.7640117,12.1692919 C53.7263531,8.56741449 50.8548815,6.13168015 46.3735029,6.13168015 C41.9674417,6.13168015 38.794701,8.52979697 38.8229449,12.1128656 C38.8135303,15.0376277 40.8659263,16.6833941 44.1987163,17.4451489 L46.2134537,17.9153679 C48.3317524,18.4043956 49.2826331,18.9780628 49.3014625,20.0595665 C49.2826331,21.2351139 48.1811178,22.0532949 46.3076003,22.0532949 C44.2457896,22.0532949 42.8900784,21.0940482 42.7865172,19.2413854 L38.3239679,19.2413854 C38.3804559,23.7460833 41.5155379,25.8996862 46.3640883,25.8996862 C51.1655653,25.8996862 54.0087929,23.7272745 54.0276222,20.0689708 C54.0087929,16.9937387 51.9281528,15.1128627 48.1246298,14.275873 L46.4676495,13.8996978 C44.7165226,13.5235226 43.6055926,12.940451 43.6432513,11.7931167 C43.6526659,10.7398262 44.5564734,9.97807144 46.3640883,9.97807144 C48.1811178,9.97807144 49.1790719,10.7962525 49.3014625,12.1692919 Z M62.0457907,25.9278994 C65.839899,25.9278994 68.3347841,24.0940453 68.8620051,21.2539227 L64.6348224,21.1316657 C64.2770653,22.0909125 63.3355992,22.6081533 62.1305226,22.6081533 C60.3605664,22.6081533 59.2684657,21.4326059 59.2684657,19.6645825 L59.2684657,19.5423256 L68.9090784,19.5423256 L68.9090784,18.3949913 C68.9090784,13.6363751 66.0093629,11.0219576 61.9045707,11.0219576 C57.5361681,11.0219576 54.7305992,14.0125503 54.7305992,18.489035 C54.7305992,23.1159898 57.4985095,25.9278994 62.0457907,25.9278994 Z M59.2684657,16.8714817 C59.3343683,15.4326117 60.4735423,14.3417036 61.9987174,14.3417036 C63.5144778,14.3417036 64.6065784,15.3949941 64.6254077,16.8714817 L59.2684657,16.8714817 Z M70.1675189,25.6551724 L74.7712881,25.6551724 L74.7712881,17.1065912 C74.7712881,15.6771255 75.6091929,14.7649007 76.8142695,14.7649007 C78.0099314,14.7649007 78.8007629,15.6018905 78.8007629,16.9373124 L78.8007629,25.6551724 L83.2256535,25.6551724 L83.2256535,17.0313562 C83.2256535,15.6489124 83.9882411,14.7649007 85.2592203,14.7649007 C86.4266382,14.7649007 87.2551284,15.5454642 87.2551284,16.9843343 L87.2551284,25.6551724 L91.8588975,25.6551724 L91.8588975,15.9310438 C91.8588975,12.8746204 89.9759654,11.0219576 87.2457137,11.0219576 C85.1085857,11.0219576 83.4233614,12.1410788 82.8867257,13.8620802 L82.7360912,13.8620802 C82.3500901,12.1316744 80.796671,11.0219576 78.7913483,11.0219576 C76.8142695,11.0219576 75.3079238,12.1034612 74.7053855,13.8620802 L74.5453362,13.8620802 L74.5453362,11.2100452 L70.1675189,11.2100452 L70.1675189,25.6551724 Z M97.6928714,25.8996862 C99.7076088,25.8996862 101.100979,25.1191227 101.89181,23.6426351 L102.004786,23.6426351 L102.004786,25.6551724 L106.33553,25.6551724 L106.33553,15.837 C106.33553,12.7805766 103.614693,11.0219576 99.9335607,11.0219576 C96.0453057,11.0219576 93.8422751,12.9780686 93.4751033,15.6112949 L97.7211154,15.7617649 C97.9188232,14.8401357 98.6814108,14.275873 99.895902,14.275873 C101.025661,14.275873 101.741176,14.821327 101.741176,15.7899781 L101.741176,15.837 C101.741176,16.7210117 100.78088,16.9090993 98.314239,17.1254 C95.3862795,17.3699139 92.9384677,18.4514175 92.9384677,21.6489066 C92.9384677,24.507838 94.9249611,25.8996862 97.6928714,25.8996862 Z M99.1144852,22.8902847 C98.0506285,22.8902847 97.2974556,22.3824482 97.2974556,21.4232015 C97.2974556,20.4921679 98.0317992,19.9279051 99.340437,19.7304132 C100.197171,19.6081562 101.251613,19.4200686 101.76942,19.1473416 L101.76942,20.5203811 C101.76942,21.931038 100.583172,22.8902847 99.1144852,22.8902847 Z M112.640228,17.4169358 C112.649643,15.7711693 113.609938,14.7931138 115.069211,14.7931138 C116.528483,14.7931138 117.394632,15.7523606 117.385217,17.3511051 L117.385217,25.6551724 L121.98902,25.6551724 L121.98902,16.4482847 C121.998401,13.1943693 120.011908,11.0219576 116.970972,11.0219576 C114.833844,11.0219576 113.214523,12.1034612 112.574326,13.8620802 L112.414276,13.8620802 L112.414276,11.2100452 L108.036459,11.2100452 L108.036459,25.6551724 L112.640228,25.6551724 L112.640228,17.4169358 Z M131.908916,11.2100452 L129.301055,11.2100452 L129.301055,7.74923346 L124.697286,7.74923346 L124.697286,11.2100452 L122.786109,11.2100452 L122.786109,14.5956219 L124.697286,14.5956219 L124.697286,21.6206935 C124.669042,24.5454556 126.570803,26.0125388 129.818861,25.8620687 C130.929791,25.8056424 131.730037,25.5799373 132.172526,25.448276 L131.475841,22.12853 C131.278134,22.1755519 130.816815,22.2695957 130.468473,22.2695957 C129.724715,22.2695957 129.301055,21.9686555 129.301055,21.112857 L129.301055,14.5956219 L131.908916,14.5956219 L131.908916,11.2100452 Z M133.157936,25.6551724 L137.761706,25.6551724 L137.761706,11.2100452 L133.157936,11.2100452 L133.157936,25.6551724 Z M135.464528,9.52666121 C136.773166,9.52666121 137.827608,8.53920135 137.827608,7.32603637 C137.827608,6.11287139 136.773166,5.13481591 135.464528,5.13481591 C134.165305,5.13481591 133.101449,6.11287139 133.101449,7.32603637 C133.101449,8.53920135 134.165305,9.52666121 135.464528,9.52666121 Z M146.325915,25.9278994 C150.393048,25.9278994 152.916178,23.5674001 153.038568,19.9937358 L148.736068,19.9937358 C148.566604,21.5266497 147.643967,22.3636395 146.382403,22.3636395 C144.763081,22.3636395 143.708639,21.0000044 143.708639,18.4326088 C143.708639,15.8840219 144.772496,14.5203868 146.382403,14.5203868 C147.700455,14.5203868 148.55719,15.4138029 148.736068,16.8902905 L153.038568,16.8902905 C152.935007,13.335435 150.33656,11.0219576 146.3165,11.0219576 C141.769219,11.0219576 139.020138,14.0501678 139.020138,18.4796307 C139.020138,22.8902847 141.75039,25.9278994 146.325915,25.9278994 Z M158.373557,25.8996862 C160.388294,25.8996862 161.781664,25.1191227 162.572495,23.6426351 L162.685471,23.6426351 L162.685471,25.6551724 L167.016215,25.6551724 L167.016215,15.837 C167.016215,12.7805766 164.295378,11.0219576 160.614246,11.0219576 C156.725991,11.0219576 154.52296,12.9780686 154.155789,15.6112949 L158.401801,15.7617649 C158.599508,14.8401357 159.362096,14.275873 160.576587,14.275873 C161.706347,14.275873 162.421861,14.821327 162.421861,15.7899781 L162.421861,15.837 C162.421861,16.7210117 161.461565,16.9090993 158.994924,17.1254 C156.066965,17.3699139 153.619153,18.4514175 153.619153,21.6489066 C153.619153,24.507838 155.605646,25.8996862 158.373557,25.8996862 Z M159.79517,22.8902847 C158.731314,22.8902847 157.978141,22.3824482 157.978141,21.4232015 C157.978141,20.4921679 158.712484,19.9279051 160.021122,19.7304132 C160.877856,19.6081562 161.932298,19.4200686 162.450105,19.1473416 L162.450105,20.5203811 C162.450105,21.931038 161.263857,22.8902847 159.79517,22.8902847 Z M168.717144,25.6551724 L173.320914,25.6551724 L173.320914,17.8119197 C173.320914,16.0909182 174.544819,14.9341795 176.192385,14.9341795 C176.738435,14.9341795 177.557511,15.0282233 178,15.1786934 L178,11.181832 C177.613999,11.0783839 177.133851,11.0125532 176.710191,11.0125532 C175.128528,11.0125532 173.866964,11.9341824 173.339743,13.8432715 L173.189108,13.8432715 L173.189108,11.2100452 L168.717144,11.2100452 L168.717144,25.6551724 Z" id="Combined-Shape" fill="#211F3B" fill-rule="nonzero"></path>
                <path d="M3.20993284,23.3107966 C5.56168665,22.636442 8.01483184,23.996243 8.68918658,26.3479975 C9.36354133,28.699752 8.00374045,31.1528985 5.65198664,31.8272531 C3.30023283,32.5016077 0.84708764,31.1418066 0.172732895,28.7900521 C-0.501621849,26.4382977 0.858179034,23.9851511 3.20993284,23.3107966 Z M13.2296192,2.0042879 L18.1137286,19.0372015 C19.437916,23.655192 16.8403855,28.4686591 12.2939019,29.9186406 L12.0393269,29.9957121 L7.15521754,12.9627986 C5.83103006,8.34480806 8.4285606,3.53134096 12.9750442,2.08135945 L13.2296192,2.0042879 Z M19.6169595,0.172746935 C21.9687133,-0.501607617 24.4218585,0.858193423 25.0962132,3.2099479 C25.770568,5.56170237 24.4107671,8.01484892 22.0590133,8.68920348 C19.7072595,9.36355803 17.2541143,8.00375699 16.5797595,5.65200251 C15.9054048,3.30024804 17.2652057,0.847101488 19.6169595,0.172746935 Z" id="Combined-Shape" fill="#DE6E4B"></path>
            </g>
        </g>
    </g>
</svg>